# xmcd CD database file
#
# Track frame offsets:
#	150
#	20852
#	48685
#	68277
#	83122
#	102197
#	121642
#	142762
#	162930
#	187612
#	208422
#	225717
#	247912
#
# Disc length: 3453 seconds
#
# Revision: 1
# Processed by: cddbd v1.5.2PL0 Copyright (c) Steve Scherf et al.
# Submitted via: CDex 1.50
#
DISCID=a00d7b0d
DTITLE=Various Artist - Lo mejor de la salsa
DYEAR=1996
DGENRE=Salsa
TTITLE0=Pura novela - Ray Barreto
TTITLE1=Pedro Navaja - Ruben Blades
TTITLE2=Las Divorciadas - Celia Cruz/Johnny Pacheco
TTITLE3=Si Si No No - Machito and His Afro Cubanos
TTITLE4=Usted Abuso - Wilie Colon
TTITLE5=Yo a Ti, Tu a Mi - Sonora Ponceña
TTITLE6=Mi Negra Mariana - Pete Rodriguez
TTITLE7=Oye Como Va - Tito Puentes
TTITLE8=Bamboleo - Fania all stars and Celia Cruz
TTITLE9=No Me Paren la Salsa - Ray Barreto
TTITLE10=Cucala - Celia Cruz
TTITLE11=Ijobi, Djoba - Fania all stars
TTITLE12=Hards hands - Ray Barreto
EXTD=YEAR: 1996
EXTT0=
EXTT1=
EXTT2=
EXTT3=
EXTT4=
EXTT5=
EXTT6=
EXTT7=
EXTT8=
EXTT9=
EXTT10=
EXTT11=
EXTT12=
PLAYORDER=
